<svg xmlns="http://www.w3.org/2000/svg" width="49.058" height="48.913" viewBox="0 0 49.058 48.913">
  <g id="Group_22" data-name="Group 22" transform="translate(0.114 0.125)">
    <path id="Path_52" data-name="Path 52" d="M1041.081,958.216c0-.516-.011-1.029-.019-1.54-.023-1.572-.045-3.057.059-4.559a2.946,2.946,0,0,1,2.116-2.452,1.919,1.919,0,0,0,1.047-1.378c.432-4.472.814-9.022,1.183-13.422.079-.939.429-1.018.751-1.018.045,0,.092,0,.142.007.411.039.773.158.684,1.177-.335,3.819-.682,7.87-1.094,12.748a7.633,7.633,0,0,0-.011.812c0,.128.006.261.006.4l.469.453h5.873l.468-.485q-.045-.611-.086-1.219c-.06-.881-.123-1.793-.2-2.688q-.252-2.909-.516-5.818-.164-1.828-.327-3.655c-.009-.1-.027-.212-.046-.322a1.43,1.43,0,0,1-.035-.421c.487-.814.7-.906.742-.916a2.019,2.019,0,0,1,.87.767,1.37,1.37,0,0,1,.059.561c0,.14,0,.285.01.429.311,3.612,1.148,13.354,1.148,13.354l.467.416h2.687l.467-.415.608-7.009.185-2.123q.219-2.492.429-4.984c.082-.987.389-1.068.752-1.068q.049,0,.1,0c.39.026.5.152.539.194a1.6,1.6,0,0,1,.144,1.061q-.4,4.668-.787,9.335l-.38,4.5.467.49h6.008l.467-.49-.245-2.863c-.258-3.022-.515-6.019-.769-9.016-.063-.75-.116-1.493-.169-2.252-.058-.833.314-.933.666-.961q.062,0,.12,0c.326,0,.669.1.731.808,0,0,.529,6,.655,7.443.144,1.644.286,3.288.431,4.956l.171,1.971.467.415h2.684l.467-.415.254-2.914q.332-3.795.66-7.572c.054-.622.1-1.245.151-1.868q.054-.7.111-1.406l.005-.066c.081-1,.177-1.345.923-1.348a.581.581,0,0,1,.466.148c.132.139.276.481.2,1.319q-.33,3.842-.672,7.683-.2,2.248-.4,4.5c-.027.307-.044.614-.063.948-.009.16-.018.326-.029.5l.468.48h5.967l.467-.488-.194-2.43q-.218-2.738-.444-5.457c-.142-1.694-.3-3.415-.455-5.079l-.094-1.013c-.086-.936.295-1.058.658-1.1a1.543,1.543,0,0,1,.172-.01c.233,0,.666,0,.749.976q.2,2.324.4,4.646c.245,2.8.5,5.7.725,8.549a1.72,1.72,0,0,0,1.3,1.782,2.694,2.694,0,0,1,1.958,2.495c.075,1.457.059,2.9.042,4.42-.005.5-.011,1-.013,1.5Zm3.419-7.156c-1.579,0-1.845,1.007-1.862,1.607-.024.817-.019,1.619-.014,2.468,0,.362,0,.728,0,1.1l.469.453h39.936l.469-.453q0-.518,0-1.02c0-.757.008-1.473-.008-2.2-.031-1.462-.543-1.933-2.109-1.937l-3.9-.01q-5.428-.014-10.857-.02h-.471q-5.148,0-10.3.007t-10.295.007Z" transform="translate(-1038.648 -909.552)" fill="#00458a" stroke="#00458a" stroke-width="0.25"/>
    <path id="Path_53" data-name="Path 53" d="M1076.7,853.758c-4.057-.022-8.045-.025-11.066-.025l-5.135,0-5.738,0h-8.244q-6.671,0-13.342,0c-1.34,0-1.386-.037-1.638-1.294-.093-.464-.183-.928-.275-1.392-.232-1.184-.471-2.408-.744-3.608a1,1,0,0,1,.575-1.3q3.245-1.816,6.487-3.638c5.446-3.056,11.077-6.217,16.635-9.292a1.755,1.755,0,0,1,1.339,0c5.709,3.159,11.493,6.405,17.087,9.545q3.017,1.693,6.036,3.385a1.006,1.006,0,0,1,.567,1.3c-.371,1.629-.717,3.353-1.029,5.124-.158.9-.521,1.187-1.491,1.187ZM1054.9,834.9a2.054,2.054,0,0,0-.944.206c-1.751.929-3.5,1.919-5.194,2.876q-.9.506-1.791,1.01l-2.915,1.635c-3.543,1.986-7.208,4.039-10.8,6.086a1.865,1.865,0,0,0-.954,1.5,24.159,24.159,0,0,0,.508,2.625c.076.328.152.66.225,1l.457.36h42.771l.457-.361c.074-.342.143-.68.213-1.017.164-.8.319-1.549.513-2.3a1.41,1.41,0,0,0-.807-1.769q-4.083-2.279-8.16-4.568c-4.14-2.321-8.421-4.721-12.644-7.062A1.973,1.973,0,0,0,1054.9,834.9Z" transform="translate(-1030.469 -833.08)" fill="#00458a" stroke="#00458a" stroke-width="0.25"/>
    <path id="Path_54" data-name="Path 54" d="M1116.539,869.4c-.034,0-.07,0-.108-.005-.352-.032-.677-.174-.662-.99a4.406,4.406,0,0,1,4.342-4.133h.024a4.387,4.387,0,0,1,4.339,4.158v.023c.047.894-.46.929-.677.944l-.086,0c-.287,0-.58-.068-.729-.886a3.073,3.073,0,0,0-2.857-2.744,2.655,2.655,0,0,0-1.752.689,4,4,0,0,0-1.085,2.059C1117.078,869.328,1116.814,869.4,1116.539,869.4Z" transform="translate(-1095.71 -857.202)" fill="#00458a" stroke="#00458a" stroke-width="0.25"/>
  </g>
</svg>
