<svg xmlns="http://www.w3.org/2000/svg" width="62.796" height="46.056" viewBox="0 0 62.796 46.056">
  <g id="Group_154" data-name="Group 154" transform="translate(-2588.951 -191.637)">
    <path id="Path_247" data-name="Path 247" d="M2617.846,237.693c-.228,0-.562-.219-.994-.651l-27.225-27.231c-.9-.9-.9-1.046,0-1.944q7.784-7.789,15.571-15.575c.434-.434.764-.655.98-.655s.541.218.972.649l.983.981c1.031,1.028,2.1,2.092,3.13,3.15a1.6,1.6,0,0,0,1.156.551,1.8,1.8,0,0,0,.638-.127c1.98-.742,4.007-1.464,5.968-2.163l.263-.094a11.79,11.79,0,0,1,3.959-.713,10.911,10.911,0,0,1,4.684,1.076c2.547,1.2,5.086,2.551,7.541,3.856q1.035.55,2.07,1.1a9.623,9.623,0,0,0,4.5,1.315h.087l.589-.008.116-.577c.242-1.208.27-1.231,1.48-1.233h4.182c.01-.17-.006,1.979,0,1.822.012-.315-.091-.623-.06-.887.073-.618-.166-.933.115-.936,1.53-.015-.34,0,1.089,0a3.882,3.882,0,0,1,.432,0c.173,0,.717.279.73,1.193s.01-1.157.007-.256q0,.581,0,1.163v3.037q0,5.466,0,10.932c0,1.155-.158,1.314-1.3,1.315h-2.434c-1.152,0,5.7,0,4.544,0-2.589,0-4.577,0-6.448-.014h-.019a2.133,2.133,0,0,0-1.844.911,10.936,10.936,0,0,1-6.648,4.449,8.686,8.686,0,0,1-1.707.138l-.339,0h-.052a2.149,2.149,0,0,0-1.637.674c-3.912,3.932-7.9,7.921-11.758,11.778l-2.341,2.341C2618.4,237.478,2618.071,237.693,2617.846,237.693Zm.01-7.86a6.276,6.276,0,0,0-3.61,1.049l-.7.5,4.306,4.321,4.288-4.3-.68-.5A6.086,6.086,0,0,0,2617.856,229.833Zm.007-1.487a8.661,8.661,0,0,1,5.017,1.6l.5.347,4.246-4.257-.344-.5a8.927,8.927,0,0,1-1.446-6.911l.108-.616-6.146-2.077-.266.617c-.031.073-.06.137-.087.2-.056.126-.11.244-.156.373a7.616,7.616,0,0,1-7.287,5.222,8.819,8.819,0,0,1-1.148-.076,7.676,7.676,0,0,1-2.076-14.563,6.757,6.757,0,0,0,3.229-2.258l.057-.062c.023-.025.054-.059.07-.074.741-.442,1.484-.879,2.177-1.287l1.388-.818-4.042-4.05-.486.285c-.062.036-.134.084-.212.137a2.1,2.1,0,0,1-.429.244c-.317.11-.634.229-.94.344a12.475,12.475,0,0,1-2.484.749,7.906,7.906,0,0,1-1.166.088,8.189,8.189,0,0,1-4.405-1.341,1.581,1.581,0,0,0-.8-.207,1.175,1.175,0,0,0-.822.282c-.819.767-1.622,1.57-2.4,2.347q-.359.359-.718.717l-.415.412.313.494a8.791,8.791,0,0,1,.058,10.187l-.311.492,15.9,15.9.5-.356a8.507,8.507,0,0,1,4.981-1.586Zm9.061-7.766,1.428,4.51,3.239-3.071-3.543-1.894ZM2609.7,209.026a6.071,6.071,0,0,0-3.778,6.8,6.291,6.291,0,0,0,5.952,5.051h0c.158,0,.318-.007.475-.022,3.009-.278,5.526-2.536,5.611-5.035l.02-.569-.547-.156c-3.457-.987-6.152-2.02-6.787-5.509l-.15-.824Zm5.991-3.674a3.508,3.508,0,0,0-3.024,1.692,3.449,3.449,0,0,0,.495,4.376,6.835,6.835,0,0,0,2.362,1.445c1.849.66,3.737,1.3,5.562,1.922,1.7.578,3.458,1.176,5.177,1.785a3.417,3.417,0,0,1,1.292.9,9.307,9.307,0,0,0,7.023,3.319,10.362,10.362,0,0,0,2.345-.28c2.216-.516,4.031-1.934,5.711-4.46a1.909,1.909,0,0,0,.283-1.026q.007-2.436.006-4.872c0-1.988,0-4.044.009-6.065a1.226,1.226,0,0,0-1.257-1.364,13.479,13.479,0,0,1-5.394-1.8c-2.6-1.413-5.4-2.86-8.8-4.553a8.768,8.768,0,0,0-3.877-1.015,6.187,6.187,0,0,0-1.417.162c-1.855.438-3.63.991-5.51,1.576-.77.24-1.565.488-2.359.724l-.981.293.6.831c.066.092.114.161.15.214a1.815,1.815,0,0,0,.219.28l.89.894c1.35,1.356,2.746,2.758,4.136,4.123a2.747,2.747,0,0,0,1.112.617c2.2.707,4.437,1.417,6.6,2.1l2.82.9c1.245.4,1.1.876,1.016,1.134s-.225.439-.664.439a2.843,2.843,0,0,1-.833-.153l-3.172-1c-3.063-.971-6.231-1.975-9.352-2.949A3.9,3.9,0,0,0,2615.691,205.352Zm28.786,9.9h4V200.944h-4Zm5.592-.008h-.809V201.183h.809Zm-59.138-6.37,4.368,4.356.493-.734c1.441-2.145,1.415-5.562-.057-7.311l-.511-.608Zm10.948-10.831.759.49a6.658,6.658,0,0,0,3.577.985,6,6,0,0,0,3.577-1.069l.675-.5-4.245-4.229Z" fill="#00458a"/>
    <path id="Path_248" data-name="Path 248" d="M2903.876,318.611a.768.768,0,0,1-.549-.236.7.7,0,0,1-.2-.513.71.71,0,0,1,.756-.69.681.681,0,0,1,.726.712.715.715,0,0,1-.725.727Z" transform="translate(-268.403 -107.247)" fill="#00458a"/>
  </g>
</svg>
