<svg xmlns="http://www.w3.org/2000/svg" width="43.377" height="52.117" viewBox="0 0 43.377 52.117">
  <g id="Group_146" data-name="Group 146" transform="translate(-986.256 -2158.5)">
    <path id="Path_234" data-name="Path 234" d="M986.628,2210.617c-.711-1.2-.419-1.729,1.005-1.739,2.37-.015-.1,0,2.452,0v-1.354q0-23.613.02-47.226a7.7,7.7,0,0,1,.441-1.795h23.412a6.059,6.059,0,0,1,.4,1.5c.029,6.031.018,12.063.019,18.093v1.185c.448.021.808.051,1.168.052q5.082.005,10.164,0c1.547,0,1.7.149,1.7,1.667q0,13.265,0,26.53v1.342c1.6,0-.75-.042.759.024a5.474,5.474,0,0,1,1.465.5v1.22Zm5.223-50.312v48.484h2.564c0-2.555.011-5.026,0-7.5a2.669,2.669,0,0,1,1.519-2.559c2.75-1.428,5.421.173,5.422,3.228,0,2.264,0,4.528,0,6.835h1.764v-1.277q0-13.328,0-26.656c0-1.341.182-1.518,1.531-1.527,1.221-.007,2.442,0,3.663,0h4.281v-19.029Zm13.028,48.516c.382.019.713.05,1.043.05,6.2,0,12.408-.017,18.612.023.936.006,1.187-.255,1.183-1.189-.036-8.509-.021-17.018-.023-25.527,0-.331-.028-.662-.044-1.016h-20.772Zm-8.7-.039h3.442c0-2.594.023-5.1-.029-7.6a1.15,1.15,0,0,0-.633-.887,6.43,6.43,0,0,0-2.118-.014,1.036,1.036,0,0,0-.633.77C996.164,2203.616,996.183,2206.183,996.183,2208.782Z" transform="translate(0)" fill="#00458a"/>
    <path id="Path_235" data-name="Path 235" d="M1076.962,2315.147c0-.691.012-1.382,0-2.072a.919.919,0,0,1,1.012-1.073q2.213-.022,4.426,0a.881.881,0,0,1,.991.987c-.01,1.475-.013,2.951,0,4.426.008.73-.379,1.021-1.049,1.024q-2.166.01-4.332,0c-.743,0-1.074-.386-1.051-1.128C1076.98,2316.592,1076.962,2315.869,1076.962,2315.147Zm1.694-1.488v3.124h3.083v-3.124Z" transform="translate(-82.433 -132.422)" fill="#00458a"/>
    <path id="Path_236" data-name="Path 236" d="M1083.431,2187.261c0,.723-.011,1.446,0,2.168.014.7-.3,1.048-1.014,1.043-1.477-.01-2.953-.007-4.43,0a.865.865,0,0,1-.982-.984q0-2.216,0-4.43c0-.712.38-1.016,1.067-1.013,1.445.006,2.891,0,4.336,0a.9.9,0,0,1,1.022,1.048C1083.42,2185.816,1083.431,2186.539,1083.431,2187.261Zm-1.641-1.521h-3.114v3.077h3.114Z" transform="translate(-82.478 -18.332)" fill="#00458a"/>
    <path id="Path_239" data-name="Path 239" d="M1144.275,2190.468c-.723,0-1.445,0-2.167,0-.6,0-.965-.262-.969-.888q-.015-2.309,0-4.617a.842.842,0,0,1,.955-.917c1.508-.006,3.016-.009,4.523,0a.867.867,0,0,1,.944.948q.027,2.261,0,4.522a.875.875,0,0,1-1.022.952C1145.782,2190.457,1145.028,2190.468,1144.275,2190.468Zm1.605-4.738h-3.095v3.1h3.095Z" transform="translate(-137.775 -18.33)" fill="#00458a"/>
    <path id="Path_241" data-name="Path 241" d="M1237.111,2340.846c0-.722.008-1.444,0-2.167a.871.871,0,0,1,.973-1q2.214-.017,4.427,0a.928.928,0,0,1,1.038,1.053q0,2.167,0,4.333a.935.935,0,0,1-1.043,1.053c-1.476.009-2.951.011-4.427,0a.876.876,0,0,1-.968-1.007C1237.12,2342.354,1237.111,2341.6,1237.111,2340.846Zm1.633-1.515v3.106h3.093v-3.106Z" transform="translate(-220.543 -149.12)" fill="#00458a"/>
    <path id="Path_242" data-name="Path 242" d="M1179.417,2340.876c0,.753-.008,1.507,0,2.26a.845.845,0,0,1-.911.963q-2.307.035-4.614,0a.858.858,0,0,1-.9-.982c0-1.476.005-2.951,0-4.427a.885.885,0,0,1,.969-1.011q2.26-.023,4.52,0c.65.008.955.374.939,1.031C1179.405,2339.431,1179.418,2340.154,1179.417,2340.876Zm-4.732-1.555v3.124h3.09v-3.124Z" transform="translate(-165.253 -149.113)" fill="#00458a"/>
    <path id="Path_243" data-name="Path 243" d="M1179.416,2469.061c0,.723-.007,1.445,0,2.168a.871.871,0,0,1-.961,1.011q-2.262.014-4.524,0a.853.853,0,0,1-.936-.945q-.012-2.262,0-4.524c0-.663.359-.956,1.013-.952,1.477.009,2.953.006,4.43,0a.855.855,0,0,1,.977.98C1179.411,2467.553,1179.416,2468.307,1179.416,2469.061Zm-1.672,1.519v-3.113h-3.05v3.113Z" transform="translate(-165.252 -265.84)" fill="#00458a"/>
    <path id="Path_246" data-name="Path 246" d="M1240.373,2465.823c.722,0,1.445.009,2.167,0a.875.875,0,0,1,1,.971c.014,1.476.01,2.952,0,4.428a.928.928,0,0,1-1.063,1.028q-2.167-.007-4.335,0a.905.905,0,0,1-1.036-1.036c.007-1.476,0-2.952,0-4.429a.857.857,0,0,1,1-.963C1238.865,2465.83,1239.619,2465.822,1240.373,2465.823Zm1.489,1.638h-3.1v3.1h3.1Z" transform="translate(-220.546 -265.843)" fill="#00458a"/>
  </g>
</svg>
