<svg xmlns="http://www.w3.org/2000/svg" width="50.101" height="50.076" viewBox="0 0 50.101 50.076">
  <g id="Group_14" data-name="Group 14" transform="translate(0.17 0.125)">
    <path id="Path_28" data-name="Path 28" d="M1153.984,112.1a20.638,20.638,0,0,1-1.065,1.818c-.722,1-1.491,1.963-2.278,2.909a.6.6,0,0,0-.016.872c.742,1.063,1.456,2.145,2.175,3.225a2.413,2.413,0,0,1-.722,3.649q-7.615,5.1-15.227,10.2a4.268,4.268,0,0,0-.953.879c-2.413,3.052-4.807,6.12-7.211,9.179a2.42,2.42,0,0,1-3.762.453c-.573-.45-1.15-.9-1.751-1.364-1.443.966-2.884,1.926-4.319,2.895a2.473,2.473,0,0,1-2.258.387,2.687,2.687,0,0,1-1.387-1.162q-4.354-6.505-8.722-13-.88-1.312-1.76-2.625a2.389,2.389,0,0,1,.712-3.644q6.826-4.573,13.649-9.151a4.4,4.4,0,0,0,.982-.918q7.113-9.04,14.2-18.1a3.177,3.177,0,0,1,1.61-1.1h.876a11.053,11.053,0,0,1,1.374.789c4.8,3.727,9.58,7.478,14.38,11.2a3.491,3.491,0,0,1,1.472,2.022Zm-4.512,3.866c.935-1.191,1.828-2.321,2.712-3.458a.952.952,0,0,0-.183-1.547q-7.473-5.841-14.953-11.673a.979.979,0,0,0-1.614.21q-5.72,7.291-11.437,14.584c-.082.1-.155.216-.231.325a1.261,1.261,0,0,0,.449-.208l4.486-3a2.4,2.4,0,0,1,.369-.234.666.666,0,0,1,.892.257.653.653,0,0,1-.086.921,2.924,2.924,0,0,1-.393.285l-17.656,11.822c-.2.132-.391.267-.551.376a8.085,8.085,0,0,1-1.974,9.987l3.791,5.647a8.132,8.132,0,0,1,10.01,1.952l23.143-15.5c-1.708-3.849-1.031-7.153,1.976-9.992l-3.792-5.647a8.117,8.117,0,0,1-10.007-1.948,11.642,11.642,0,0,1-1.248.8.868.868,0,0,1-.749-.006,1,1,0,0,1-.323-.732c0-.184.233-.413.418-.539q3.058-2.075,6.136-4.121a2.409,2.409,0,0,1,3.642.749q1.506,2.24,3.008,4.481Zm-.385,2.048a6.348,6.348,0,0,0-1.546,7.838c1.327-.893,2.661-1.773,3.973-2.684a.862.862,0,0,0,.2-1.217C1150.86,120.639,1149.979,119.342,1149.088,118.012Zm-5.511-8.214c-.9-1.33-1.762-2.638-2.653-3.929a.847.847,0,0,0-1.2-.272c-1.341.868-2.663,1.766-3.993,2.652A6.342,6.342,0,0,0,1143.577,109.8Zm-29.61,31.762q1.228,1.833,2.456,3.665c.508.756.93.835,1.7.321q1.675-1.117,3.345-2.242c.114-.077.219-.168.328-.253A6.34,6.34,0,0,0,1113.968,141.56Zm-3.974-16.08c-1.278.854-2.528,1.685-3.772,2.523a.96.96,0,0,0-.307,1.559q1.169,1.757,2.352,3.505a2.727,2.727,0,0,0,.207.244A6.382,6.382,0,0,0,1109.994,125.48Zm22.2,12.518-.059-.076-7.676,5.141.982.772c1.253.981,1.415.964,2.4-.294Q1130.021,140.772,1132.192,138Z" transform="translate(-1104.179 -97.5)" fill="#00458a" stroke="#00458a" stroke-width="0.25"/>
    <path id="Path_32" data-name="Path 32" d="M1180.856,367.44a3.2,3.2,0,0,1-.516.629c-1.091.755-2.2,1.49-3.3,2.219a.727.727,0,1,1-.825-1.194c1.124-.765,2.248-1.53,3.4-2.254a.943.943,0,0,1,.762-.022C1180.564,366.9,1180.671,367.189,1180.856,367.44Z" transform="translate(-1166.549 -331.812)" fill="#00458a" stroke="#00458a" stroke-width="0.25"/>
    <path id="Path_33" data-name="Path 33" d="M1378.719,235.075a3.128,3.128,0,0,1-.511.632c-1.09.756-2.194,1.491-3.3,2.221a.731.731,0,1,1-.8-1.216c1.1-.744,2.193-1.494,3.317-2.2a1.035,1.035,0,0,1,.8-.05C1378.419,234.534,1378.531,234.828,1378.719,235.075Z" transform="translate(-1338.741 -216.64)" fill="#00458a" stroke="#00458a" stroke-width="0.25"/>
    <text id="RS" transform="matrix(0.819, -0.574, 0.574, 0.819, 21.119, 36.062)" fill="#00458a" font-size="12" font-family="Montserrat-Bold, Montserrat" font-weight="700"><tspan x="0" y="0">RS</tspan></text>
  </g>
</svg>
