<svg xmlns="http://www.w3.org/2000/svg" width="20.247" height="20.243" viewBox="0 0 20.247 20.243">
  <g id="Group_170" data-name="Group 170" transform="translate(-3477.406 162.561)">
    <path id="Path_249" data-name="Path 249" d="M3487.5-142.444q-3.491,0-6.982,0a2.716,2.716,0,0,1-2.971-2.955c0-4.683.032-9.366-.018-14.049a2.834,2.834,0,0,1,3.012-2.984c1.062.054,2.128.007,3.192.012.661,0,1.065.343,1.074.888s-.417.921-1.088.923c-1.079,0-2.157,0-3.236,0-.792,0-1.124.323-1.124,1.1q0,7.067,0,14.134c0,.786.328,1.116,1.11,1.116q7.066,0,14.134,0c.778,0,1.106-.333,1.107-1.12,0-1.7,0-3.406,0-5.109a.908.908,0,0,1,.847-1.025.842.842,0,0,1,.947.818c.015,1.958.05,3.918-.021,5.873a2.619,2.619,0,0,1-2.708,2.371c-1.7.016-3.406,0-5.109,0Z" transform="translate(0 0)" fill="#fff" stroke="#fff" stroke-width="0.25"/>
    <path id="Path_250" data-name="Path 250" d="M3528.468-149.647c0-.4,0-.764,0-1.13a.963.963,0,0,1,.5-.922.926.926,0,0,1,1.038.089c2.041,1.363,4.086,2.717,6.125,4.082a.909.909,0,0,1,.021,1.632q-3.089,2.078-6.2,4.13a.913.913,0,0,1-1.483-.8c-.009-.31,0-.621,0-.978a7.229,7.229,0,0,0-2.713.98,7.894,7.894,0,0,0-3.548,4.408c-.022.067-.043.135-.068.2a.96.96,0,0,1-1.091.678.919.919,0,0,1-.75-.992,15.863,15.863,0,0,1,.8-4.977,10.361,10.361,0,0,1,2.533-4.18A8,8,0,0,1,3528.468-149.647Zm-5.645,7.025c.193-.181.325-.308.461-.431a9.1,9.1,0,0,1,5.945-2.389.928.928,0,0,1,1.073.984c.007.083.015.166.027.311l3.776-2.509-3.76-2.506c-.146,1.109-.3,1.264-1.385,1.307C3525.769-147.728,3523.687-145.41,3522.824-142.622Z" transform="translate(-39.123 -9.712)" fill="#fff" stroke="#fff" stroke-width="0.25"/>
  </g>
</svg>
