<svg xmlns="http://www.w3.org/2000/svg" width="22.563" height="22.572" viewBox="0 0 22.563 22.572">
  <g id="Group_145" data-name="Group 145" transform="translate(-1272.282 -1650.207)">
    <path id="Path_231" data-name="Path 231" d="M1289.771,1670.214a4,4,0,0,1-1.057-.63c-.869-.985-1.747-.51-2.631-.1a.645.645,0,0,0-.241.415c-.111.492-.179.993-.285,1.486a1.1,1.1,0,0,1-1.116.993,16.361,16.361,0,0,1-1.8-.006,1.094,1.094,0,0,1-1.057-.921,1.408,1.408,0,0,1-.082-.4,1.91,1.91,0,0,0-1.733-2.1.741.741,0,0,0-.51.079c-.43.263-.829.576-1.252.851a1.143,1.143,0,0,1-1.586-.131q-.574-.538-1.113-1.112a1.152,1.152,0,0,1-.14-1.586,1.175,1.175,0,0,1,.165-.239,1.848,1.848,0,0,0,.3-2.644.979.979,0,0,0-.476-.4c-.485-.132-.992-.182-1.485-.286a1.105,1.105,0,0,1-.993-1.115,17.644,17.644,0,0,1,.006-1.806,1.072,1.072,0,0,1,.922-1.053c.493-.106,1-.144,1.485-.284.213-.062.378-.3.557-.464.039-.036.037-.112.07-.158.626-.878.307-1.586-.3-2.348-.764-.957-.686-1.348.167-2.2.288-.289.568-.587.871-.86a1.141,1.141,0,0,1,1.494-.136,1.3,1.3,0,0,1,.289.195,1.843,1.843,0,0,0,2.641.305.985.985,0,0,0,.4-.474c.133-.485.186-.991.292-1.484a1.1,1.1,0,0,1,1.113-1,15.566,15.566,0,0,1,1.747,0,1.117,1.117,0,0,1,1.128.982,1.255,1.255,0,0,1,.072.341,1.907,1.907,0,0,0,1.729,2.1.741.741,0,0,0,.51-.075c.446-.274.86-.6,1.3-.883a1.117,1.117,0,0,1,1.494.118c.415.38.814.781,1.2,1.195a1.134,1.134,0,0,1,.106,1.542c-.264.407-.577.785-.814,1.206a1.057,1.057,0,0,0-.078.66,1.96,1.96,0,0,0,2.1,1.669c1.035.078,1.291.5,1.3,1.561,0,.408.011.817,0,1.224a1.161,1.161,0,0,1-1.049,1.253,1.116,1.116,0,0,1-.283.063,1.911,1.911,0,0,0-2.1,1.73.744.744,0,0,0,.078.51c.274.446.594.863.884,1.3a1.037,1.037,0,0,1,.012,1.3,16.461,16.461,0,0,1-1.518,1.523A2.453,2.453,0,0,1,1289.771,1670.214Zm3.876-8.7c0-1.4.039-1.117-1.1-1.361a3.024,3.024,0,0,0-.517-.079c-.77-.028-1.048-.476-1.422-1.141a2.328,2.328,0,0,1,.452-3.124c.44-.453.332-.8-.109-1.21-1.3-1.206-.833-1.217-2.265-.179a1.971,1.971,0,0,1-2.072.24,2.3,2.3,0,0,1-1.766-2.323c-.078-.924-.144-.925-1.076-.918-1.623.013-1.334-.2-1.574,1.369a2.05,2.05,0,0,1-1.343,1.734,2.265,2.265,0,0,1-2.835-.4c-.74-.616-.789-.57-1.456.111-1.075,1.1-1.1.788-.179,1.984a2.059,2.059,0,0,1,.273,2.379,2.1,2.1,0,0,1-1.954,1.56c-1.232.129-1.223.213-1.223,1.466,0,1.005,0,1,.959,1.174a5.417,5.417,0,0,0,.687.123,1.225,1.225,0,0,1,1.342,1.137,1.432,1.432,0,0,0,.266.64c.483.639.3,1.141-.133,1.756-1.17,1.673-1.23,1.049.265,2.608.013.014.026.038.041.04.237.024.524.141.7.048a7.029,7.029,0,0,0,1.247-.853.938.938,0,0,1,1.3-.073,2.145,2.145,0,0,0,.851.364,1.185,1.185,0,0,1,1.117,1.293,1.729,1.729,0,0,0,.051.345c.327,1.531-.034,1.329,1.617,1.345a2.628,2.628,0,0,1,.291,0c.455.057.681-.14.739-.6.064-.5.192-.991.251-1.492a.75.75,0,0,1,.653-.764,1.172,1.172,0,0,0,.493-.167c1.112-.841,2.026-.444,2.96.363.661.571.716.521,1.322-.1,1.152-1.181,1.171-.806.194-2.12a2,2,0,0,1-.266-2.226,2.221,2.221,0,0,1,2.137-1.665C1293.691,1662.7,1293.654,1662.842,1293.648,1661.513Z" transform="translate(0 0)" fill="#323031" stroke="#323031" stroke-width="0.75"/>
    <path id="Path_232" data-name="Path 232" d="M1360.326,1733.461a4.845,4.845,0,1,1-4.974-4.786A4.852,4.852,0,0,1,1360.326,1733.461Zm-.815.105a4.029,4.029,0,1,0-4.095,3.977A4.037,4.037,0,0,0,1359.511,1733.566Z" transform="translate(-71.919 -72.021)" fill="#323031" stroke="#323031" stroke-width="0.75"/>
  </g>
</svg>
