<svg xmlns="http://www.w3.org/2000/svg" width="20.388" height="21.627" viewBox="0 0 20.388 21.627">
  <g id="Group_144" data-name="Group 144" transform="translate(-314 -1796.96)">
    <path id="Path_233" data-name="Path 233" d="M314,1878.349a12.862,12.862,0,0,1,.95-1.214,6.922,6.922,0,0,0,2.1-4.858c.031-1.3-.04-2.613.1-3.9a6.9,6.9,0,0,1,5.135-5.87c.585-.158.993.008,1.128.459s-.127.831-.7.995a5.515,5.515,0,0,0-3.61,3.017,5.755,5.755,0,0,0-.534,2.493c-.009,1.238.032,2.484-.081,3.713a8,8,0,0,1-2.64,5.189,2.12,2.12,0,0,0-.295.488,2.257,2.257,0,0,0,.562.15q8.057.012,16.114,0a1.991,1.991,0,0,0,.546-.166c-.1-.164-.193-.335-.308-.489-.6-.812-1.241-1.6-1.8-2.436a.74.74,0,0,1,.26-1.136c.418-.208.773-.008,1.1.454a22.7,22.7,0,0,0,1.692,2.159,1.891,1.891,0,0,1,.5,2,1.765,1.765,0,0,1-1.706,1.144c-1.523.008-3.047,0-4.5,0a16.118,16.118,0,0,1-.806,1.514,4.044,4.044,0,0,1-2.435,1.537H323.63c-.12-.036-.239-.074-.359-.108a3.811,3.811,0,0,1-2.7-2.452c-.059-.159-.111-.32-.171-.492-1.37,0-2.717-.046-4.06.014a2.149,2.149,0,0,1-2.345-1.349Zm8.064,2.212a2.208,2.208,0,0,0,2.168,1.5,2.156,2.156,0,0,0,2.032-1.5Z" transform="translate(0 -65.007)" fill="#323031"/>
    <g id="Ellipse_12" data-name="Ellipse 12" transform="translate(324.388 1796.96)" fill="#ff2d2d" stroke="#323031" stroke-width="1.5">
      <circle cx="5" cy="5" r="5" stroke="none"/>
      <circle cx="5" cy="5" r="4.25" fill="none"/>
    </g>
  </g>
</svg>
