<svg xmlns="http://www.w3.org/2000/svg" xmlns:xlink="http://www.w3.org/1999/xlink" width="30" height="30" viewBox="0 0 30 30">
  <defs>
    <clipPath id="clip-icon3">
      <rect width="30" height="30"/>
    </clipPath>
  </defs>
  <g id="icon3" clip-path="url(#clip-icon3)">
    <g id="hD5VzY.tif" transform="translate(4 4)">
      <g id="Group_3360" data-name="Group 3360">
        <path id="Path_302" data-name="Path 302" d="M1379.122,127a14.837,14.837,0,0,0,3.123.481c.114-.009.229,0,.349,0a1.269,1.269,0,0,1,0,.855c-.215.625-.437,1.248-.658,1.871-.14.395-.186.277.143.534a11.443,11.443,0,0,1,2.621,2.763,6.81,6.81,0,0,1,1.164,3.636l.387-.017a2.429,2.429,0,0,1,1.536.411c.41.286.467.489.244.932a17.515,17.515,0,0,1-2.252,3.524,19.8,19.8,0,0,1-3.467,3.178,1.459,1.459,0,0,1-.906.278c-1.989-.012-3.978-.006-5.968-.005-.12,0-.239.012-.359.019l-.054.079c.172.15.352.292.515.451a.454.454,0,0,1,0,.746q-1.1,1.1-2.2,2.2a2,2,0,0,1-.317.214h-.13a4.416,4.416,0,0,1-.418-.329q-2.641-2.632-5.277-5.272c-.311-.311-.31-.517,0-.826l2.14-2.141a.482.482,0,0,1,.812.01c.165.171.324.346.506.54.234-.239.438-.45.647-.658.332-.33.648-.68,1.005-.981a3.219,3.219,0,0,1,2.27-.942c-.057-.232-.126-.443-.158-.66a6.084,6.084,0,0,1,.85-4.017,10.733,10.733,0,0,1,2.8-3.087c.1-.075.191-.148.3-.229-.215-.415-.425-.815-.63-1.218-.147-.289-.285-.581-.427-.872a.7.7,0,0,1,.086-.786,1.614,1.614,0,0,1,1.047-.628c.07-.012.138-.034.207-.051Zm8.061,11.168a1.662,1.662,0,0,0-2.048.386c-.262.31-.442.689-.673,1.027a1,1,0,0,1-.313.309c-.452.253-.914.489-1.376.724-.127.065-.2.118-.165.291a1.035,1.035,0,0,1-.02.448,1.717,1.717,0,0,1-1.549,1.3c-.59.028-1.182.018-1.773.02-.649,0-1.3,0-1.947,0-.149,0-.21-.05-.2-.2a2.66,2.66,0,0,0,0-.432c-.023-.216.07-.265.272-.263,1.074.009,2.148.006,3.223,0a2.881,2.881,0,0,0,.58-.046.677.677,0,0,0-.042-1.332,2.321,2.321,0,0,0-.386-.036c-.764,0-1.529.011-2.293-.011a1.5,1.5,0,0,1-.649-.182,6.88,6.88,0,0,1-.759-.534.937.937,0,0,0-.6-.194c-.584.014-1.17.035-1.752,0a2.1,2.1,0,0,0-1.606.56c-.609.55-1.18,1.142-1.766,1.717-.008.008,0,.027-.009.072.2.2.42.407.634.62.755.754,1.507,1.51,2.267,2.26.051.051.175.1.224.07a1.857,1.857,0,0,1,.92-.19c1.961,0,3.922-.01,5.883.009a1.306,1.306,0,0,0,.991-.37c.912-.881,1.83-1.756,2.743-2.637a1.879,1.879,0,0,0,.259-.318c.519-.788,1.038-1.576,1.548-2.369C1386.938,138.648,1387.049,138.414,1387.183,138.168Zm-10.943.384a1.811,1.811,0,0,1,1.329.334c.191.141.366.3.564.434a.783.783,0,0,0,.387.14c.735.013,1.47.007,2.205.006a1.943,1.943,0,0,1,1.251.4.212.212,0,0,0,.27.019c.425-.228.857-.443,1.279-.676a.7.7,0,0,0,.253-.246,4.782,4.782,0,0,1,1.079-1.366.38.38,0,0,0,.1-.262,5.575,5.575,0,0,0-.618-2.706,9.674,9.674,0,0,0-3.023-3.328.337.337,0,0,0-.255-.024,3.531,3.531,0,0,1-1.919,0,.4.4,0,0,0-.307.056c-.429.34-.863.677-1.26,1.052a6.7,6.7,0,0,0-2.292,4.119,3.421,3.421,0,0,0,.134,1.7c.137.343.136.343.5.345Zm-1.664,7.826-4.843-4.849-1.6,1.6,4.847,4.847Zm7.092-17.985c-.221-.029-.422-.044-.618-.084-.606-.124-1.208-.265-1.814-.383a1.324,1.324,0,0,0-.887.077c-.148.077-.208.16-.113.338.347.647.672,1.3,1.018,1.952a.352.352,0,0,0,.245.165c.393.019.788.008,1.183.012a.26.26,0,0,0,.269-.2c.2-.51.4-1.016.6-1.524C1381.594,128.637,1381.626,128.52,1381.667,128.393Z" transform="translate(-1366.964 -127)" fill="#fff" stroke="#fff" stroke-width="0.2"/>
        <path id="Path_304" data-name="Path 304" d="M1425.114,494.391l.656.655-.464.438-.646-.643Z" transform="translate(-1424.553 -477.983)" fill="#fff" stroke="#fff" stroke-width="0.2"/>
      </g>
    </g>
  </g>
</svg>
