<svg xmlns="http://www.w3.org/2000/svg" xmlns:xlink="http://www.w3.org/1999/xlink" width="30" height="30" viewBox="0 0 30 30">
  <defs>
    <clipPath id="clip-icon9Active">
      <rect width="30" height="30"/>
    </clipPath>
  </defs>
  <g id="icon9Active" clip-path="url(#clip-icon9Active)">
    <g id="Group_4963" data-name="Group 4963" transform="translate(5 5)">
      <path id="rgba_1_1_1_0.97_" data-name="rgba(1,1,1,0.97)" d="M16.961,8h2.513l.144.144L20.236,9.9l1.009.288,1.483.7,1.318-.659.288-.124H24.5l1.792,1.751.041.247-.824,1.73.618,1.195.247.742.041.288.1.144,1.73.577.144.144.041.165-.041.206.041.206-.041.041v.577l.041.206-.041.041v.577l.041.206-.041.041v.288l-.1.144-1.916.659-.412,1.174-.536.989v.124l.865,1.73v.247L24.5,26.334h-.206l-1.854-.906-.948.494-.659.247-.556.124-.618,1.875-.144.227-.082.041H16.961l-.144-.1-.7-2.039L15.107,26l-1.071-.536h-.165l-1.4.7-.371.165h-.165l-1.792-1.751-.041-.247.865-1.73v-.124l-.536-1.03L10,20.278,8.185,19.66l-.144-.1L8,19.474V16.961l.227-.227,1.751-.577.288-1.051.659-1.36-.742-1.483-.082-.206v-.165L11.852,10.1l.247-.041,1.607.824h.124l.288-.206.948-.453L16.2,9.9l.577-1.71.1-.144Zm.391.618-.124.165-.536,1.566-.206.124-.453.082-1.112.412-.989.577h-.288L12.161,10.8l-.041-.041L10.8,12.079l.783,1.607v.247l-.536.948L10.8,15.5l-.206.7-.041.33-.165.165L8.7,17.27l-.082.082v1.772l1.936.577.124.206.165.7.288.742.577.989v.288l-.824,1.648v.082l1.277,1.236,1.813-.865h.165l1.195.618,1.236.371.124.165.618,1.813.082.041h1.772l.082-.124.577-1.73.247-.206.288-.041.742-.247,1.36-.659.577.206,1.318.659,1.277-1.236-.082-.288-.742-1.483v-.206l.247-.371.577-1.236.247-.906.206-.165,1.648-.577h.082V17.352l-.124-.124-1.607-.536-.206-.206-.206-.865-.288-.742-.536-.948v-.247l.082-.206.659-1.36.041-.041L24.4,10.8h-.124l-1.442.742h-.288l-.783-.453-.865-.371-1.071-.288-.206-.288-.494-1.4V8.618Z" transform="translate(-8 -8)" fill="rgba(14,76,127,0.97)" stroke="#0e4c7f" stroke-width="0.6"/>
      <path id="rgba_1_1_1_0.97_2" data-name="rgba(1,1,1,0.97)" d="M164.888,173h6.605l.41.182.251.251.228.547v5.33l-.182.547-.3.3-.5.182h-6.423l-.5-.182-.3-.3-.182-.547v-5.33l.137-.456.251-.3Zm.068.729-.091.046-.137.182v5.421l.046.091.228.137h6.423l.091-.046.137-.182v-5.421l-.046-.091-.137-.137h-1.685v2.141l-.046.091-.137.137h-2.779l-.228-.228v-2.141Zm2.369,0v1.685h1.731v-1.685Z" transform="translate(-157.973 -166.552)" fill="rgba(14,76,127,0.97)" stroke="#0e4c7f" stroke-width="0.5"/>
    </g>
  </g>
</svg>
