<svg xmlns="http://www.w3.org/2000/svg" xmlns:xlink="http://www.w3.org/1999/xlink" width="30" height="30" viewBox="0 0 30 30">
  <defs>
    <clipPath id="clip-icon5">
      <rect width="30" height="30"/>
    </clipPath>
  </defs>
  <g id="icon5" clip-path="url(#clip-icon5)">
    <g id="F7MfP5.tif" transform="translate(5 7)">
      <g id="Group_3361" data-name="Group 3361" transform="translate(0)">
        <path id="Path_305" data-name="Path 305" d="M513,1096.277a.514.514,0,0,1,.491-.257q3.357.006,6.714,0a.755.755,0,0,1,.223.029.389.389,0,0,1,.267.412.377.377,0,0,1-.345.346c-.227.014-.455.009-.682.009H513.8v10.12c.063,0,.124.01.185.01q2.94,0,5.879,0a2.24,2.24,0,0,1,1.223.394c0-.1.012-.181.012-.258q0-4.476,0-8.953a2.106,2.106,0,0,1,1.756-2.094,1.624,1.624,0,0,1,.283-.02l7.207,0c.332,0,.483.156.482.489q0,2.893,0,5.785a1.038,1.038,0,0,1-.028.28.391.391,0,0,1-.762-.084c-.006-.069,0-.139,0-.208q0-2.608,0-5.216v-.243c-.085,0-.152-.011-.219-.011H523.19a1.166,1.166,0,0,0-1.287,1.261q-.007,4.562,0,9.124c0,.043.006.087.011.154.062-.034.109-.057.155-.085a2.182,2.182,0,0,1,.966-.306.406.406,0,0,1,.477.353.376.376,0,0,1-.406.437,1.221,1.221,0,0,0-1.173,1.039c0,.056-.006.111-.01.2h.728c.158,0,.316,0,.474,0a.377.377,0,0,1,.387.381.392.392,0,0,1-.365.408,1.72,1.72,0,0,1-.19,0q-4.685,0-9.37,0a.691.691,0,0,1-.586-.223Zm.8,11.47v1.22h7.265a1.125,1.125,0,0,0-.974-1.2c-.17-.013-.34-.019-.51-.019H513.8Z" transform="translate(-513 -1096.012)" fill="#fff" stroke="#fff" stroke-width="0.3"/>
        <path id="Path_306" data-name="Path 306" d="M812.577,1287.759a2.778,2.778,0,0,1-.388-.227.79.79,0,0,1-.3-.646c0-1.58,0-3.161,0-4.742a.86.86,0,0,1,.837-.855c.258-.007.516,0,.8,0,0-.395-.009-.772,0-1.149a2.974,2.974,0,0,1,.081-.655,2.478,2.478,0,0,1,2.661-1.809,2.517,2.517,0,0,1,2.1,2.449c0,.378,0,.757,0,1.165.162,0,.312.013.46,0a1.01,1.01,0,0,1,1.14.669v5.122a1.127,1.127,0,0,1-.683.683Zm.116-.809c.075,0,.13.009.186.009,2.029,0,4.057,0,6.086,0,.188,0,.215-.07.214-.231q-.007-2.209,0-4.417c0-.184-.053-.231-.233-.231-2.016.006-4.032,0-6.048,0-.067,0-.133.006-.206.01Zm1.6-5.689.054,0c.011.005.022.016.033.016,1.03,0,2.061.006,3.091,0a.157.157,0,0,0,.105-.111c0-.455.018-.912-.026-1.364a1.618,1.618,0,0,0-3.143-.216A12.4,12.4,0,0,0,814.293,1281.261Z" transform="translate(-800.55 -1270.762)" fill="#fff" stroke="#fff" stroke-width="0.3"/>
        <path id="Path_307" data-name="Path 307" d="M903.1,1442.965a.584.584,0,0,1,.588.608.594.594,0,0,1-.594.589.607.607,0,0,1-.6-.6A.6.6,0,0,1,903.1,1442.965Z" transform="translate(-887.71 -1429.801)" fill="#fff" stroke="#fff" stroke-width="0.3"/>
      </g>
    </g>
  </g>
</svg>
