<svg xmlns="http://www.w3.org/2000/svg" xmlns:xlink="http://www.w3.org/1999/xlink" width="30" height="30" viewBox="0 0 30 30">
  <defs>
    <clipPath id="clip-icon4">
      <rect width="30" height="30"/>
    </clipPath>
  </defs>
  <g id="icon4" clip-path="url(#clip-icon4)">
    <g id="Group_4961" data-name="Group 4961" transform="translate(6 6)">
      <path id="Path_308" data-name="Path 308" d="M746.338,1968.918h1.405v-.2c0-2.453.007-4.905-.007-7.358a.655.655,0,0,1,.737-.729c.8.022,1.6.006,2.393.007a.584.584,0,0,1,.654.657q0,3.67,0,7.34v.277h1.4v-.219q0-5.31,0-10.62c0-.476.214-.69.694-.69q1.205,0,2.411,0a.6.6,0,0,1,.677.675q0,5.318,0,10.638v.23c.207,0,.4,0,.583,0a.583.583,0,0,1,.628.559.6.6,0,0,1-.634.575q-2.792,0-5.583,0l-8.384.006c-.839,0-1.678,0-2.517-.006a.6.6,0,0,1-.661-.657q0-8.2,0-16.4a.6.6,0,0,1,.437-.63.552.552,0,0,1,.635.3.809.809,0,0,1,.06.326q0,7.614,0,15.229v.682h1.29v-.194c0-1.383.01-2.766-.006-4.149a.64.64,0,0,1,.691-.683c.821.023,1.642.006,2.464.007a.57.57,0,0,1,.628.625q0,2.083,0,4.166Zm9.219-.013v-10.371H754.07V1968.9Zm-6.665-7.125v7.123h1.478v-7.123Zm-3.7,7.125v-3.858h-1.482v3.858Z" transform="translate(-740.135 -1952.268)" fill="#fff"/>
      <path id="Path_309" data-name="Path 309" d="M815.241,1955.762l4.963-4.838c-.157,0-.266,0-.374,0a.566.566,0,1,1-.021-1.131q.921-.02,1.842-.012a.553.553,0,0,1,.52.55c0,.6,0,1.193-.017,1.789a.566.566,0,1,1-1.132,0c0-.123,0-.246,0-.419-.078.073-.123.113-.166.155l-5.127,4.972a.579.579,0,0,1-.947.008l-1.692-1.581a1.23,1.23,0,0,1-.117.166q-1.99,1.995-3.983,3.987a.571.571,0,0,1-.567.2.541.541,0,0,1-.335-.833,1.289,1.289,0,0,1,.164-.185l4.335-4.337c.377-.377.627-.38,1.011-.019q.768.722,1.54,1.44C815.168,1955.7,815.2,1955.729,815.241,1955.762Z" transform="translate(-805.589 -1949.779)" fill="#fff"/>
    </g>
  </g>
</svg>
