<svg xmlns="http://www.w3.org/2000/svg" xmlns:xlink="http://www.w3.org/1999/xlink" width="30" height="30" viewBox="0 0 30 30">
  <defs>
    <clipPath id="clip-icon7Active_">
      <rect width="30" height="30"/>
    </clipPath>
  </defs>
  <g id="icon7Active_" data-name="icon7Active     " clip-path="url(#clip-icon7Active_)">
    <g id="C6vYwt.tif" transform="translate(4 4)">
      <g id="Group_3369" data-name="Group 3369">
        <g id="Group_3368" data-name="Group 3368" transform="translate(0)">
          <g id="Group_3367" data-name="Group 3367">
            <path id="Path_312" data-name="Path 312" d="M1707.924,1946.967a11.059,11.059,0,0,1,.138-22.117h.028a11.059,11.059,0,1,1-.078,22.117Zm-3.893-6.569c0,.02.006.037.008.053a.873.873,0,0,0,.016.089,11.332,11.332,0,0,0,1.179,2.968,4.8,4.8,0,0,0,1.72,1.852,2.173,2.173,0,0,0,1.093.314h0a2.179,2.179,0,0,0,1.031-.276,3.867,3.867,0,0,0,1.181-1.018,9.66,9.66,0,0,0,1.688-3.5c.03-.1.055-.209.082-.319.012-.051.025-.1.038-.155l.029-.116h-8.085Zm9.632-.118a.259.259,0,0,0-.275.248,12.461,12.461,0,0,1-1.735,4.134.611.611,0,0,0-.047.094c-.009.021-.02.047-.036.08l-.1.218.222-.094a9.892,9.892,0,0,0,5.009-4.541l.075-.137h-1.608c-.411,0-.953,0-1.5,0Zm-14.259.152a9.615,9.615,0,0,0,4.973,4.485l.272.111-.159-.248a13.173,13.173,0,0,1-1.821-4.412l-.016-.074h-3.325Zm4.336-7.513a18.806,18.806,0,0,0,.018,6l.024.055h8.553l.021-.064a18.4,18.4,0,0,0-.018-6l-.025-.055h-8.554Zm10,.033c.017.306.037.615.057.913.045.67.091,1.364.091,2.041s-.046,1.379-.091,2.054c-.02.3-.04.607-.056.912l-.005.1h3.572l.021-.065a9.726,9.726,0,0,0,0-5.986l-.02-.065h-3.574Zm-14.981-.029a9.719,9.719,0,0,0,0,5.98l.02.065h3.574l-.005-.1c-.016-.3-.036-.61-.056-.907-.044-.67-.09-1.362-.091-2.04s.045-1.38.089-2.055c.019-.3.039-.607.056-.912l.005-.1h-3.571Zm5.638-6.054a9.824,9.824,0,0,0-4.985,4.5l-.045.083.084.044.026.015a.14.14,0,0,0,.075.025h.866c.66,0,1.341,0,2.012.006.22,0,.253-.152.275-.252a11.9,11.9,0,0,1,1.028-2.9c.16-.311.333-.615.517-.936.086-.15.174-.3.263-.464l.133-.237Zm7.16.12.044.09a.839.839,0,0,0,.05.095,12.287,12.287,0,0,1,1.732,4.135.268.268,0,0,0,.305.238h.005c.607,0,1.224,0,1.821,0h.917a.757.757,0,0,0,.115-.011l.066-.009.137-.016-.066-.121a9.88,9.88,0,0,0-5.009-4.525l-.234-.1Zm-3.511-.844a2.1,2.1,0,0,0-1.115.341,4.337,4.337,0,0,0-.828.666,8.4,8.4,0,0,0-1.773,3.195c-.081.238-.147.475-.218.726-.032.115-.065.23-.1.346l-.035.119h8.128l-.031-.117a9.343,9.343,0,0,0-1.978-4.148,4.406,4.406,0,0,0-.9-.763A2.11,2.11,0,0,0,1708.05,1926.143Z" transform="translate(-1696.992 -1924.85)" fill="rgba(14,76,127,0.97)"/>
          </g>
        </g>
      </g>
    </g>
  </g>
</svg>
