<svg xmlns="http://www.w3.org/2000/svg" xmlns:xlink="http://www.w3.org/1999/xlink" width="30" height="30" viewBox="0 0 30 30">
  <defs>
    <clipPath id="clip-icon8Active">
      <rect width="30" height="30"/>
    </clipPath>
  </defs>
  <g id="icon8Active" clip-path="url(#clip-icon8Active)">
    <g id="_6lEFcM.tif" data-name="6lEFcM.tif" transform="translate(5.782 5.785)">
      <g id="Group_3376" data-name="Group 3376">
        <g id="Group_3375" data-name="Group 3375" transform="translate(0 0)">
          <g id="Group_3371" data-name="Group 3371" transform="translate(0 0.003)">
            <path id="Path_313" data-name="Path 313" d="M500.274,1705.537l-3.818,0a.576.576,0,0,1-.608-.6c0-.112,0-.224,0-.336a5.48,5.48,0,0,1,.2-1.922,4.371,4.371,0,0,1,3.818-3.1h.007a.715.715,0,0,0,.2-.053l.493-.213.008.246a4.427,4.427,0,0,1,2.98,1.462,4.361,4.361,0,0,1,1.148,2.93c.007.353,0,.708,0,.977a.59.59,0,0,1-.6.615Zm.021-4.8h-.085a3.24,3.24,0,0,0-2.3,1.022,3.141,3.141,0,0,0-.86,2.214l.015.345h6.415l.016-.344a3.051,3.051,0,0,0-.869-2.221A3.247,3.247,0,0,0,500.294,1700.742Zm-.31-1.909a2.574,2.574,0,0,1-1.73-1.021,2.408,2.408,0,0,1-.452-1.948,2.49,2.49,0,0,1,2.523-2.05c.059,0,.119,0,.178.005a2.546,2.546,0,0,1,2.268,2.246,2.583,2.583,0,0,1-.489,1.752,2.628,2.628,0,0,1-1.737,1.02l0,.091Zm.273-3.842a1.324,1.324,0,0,0,.013,2.648h.009a1.328,1.328,0,0,0,1.316-1.316,1.339,1.339,0,0,0-1.324-1.331Z" transform="translate(-495.841 -1693.813)" fill="rgba(14,76,127,0.97)" stroke="#0e4c7f" stroke-width="0.1"/>
          </g>
          <g id="Group_3372" data-name="Group 3372" transform="translate(9.571 6.703)">
            <path id="Path_314" data-name="Path 314" d="M712.935,1854.355c-1.286,0-2.608,0-3.93,0a.543.543,0,0,1-.57-.485,6.148,6.148,0,0,1,.214-2.456,4.342,4.342,0,0,1,3.689-3,1.539,1.539,0,0,0,.171-.035.39.39,0,0,0,.211-.144l.439-.472-.649-.117a2.612,2.612,0,0,1-1.712-1.049,2.517,2.517,0,0,1,2.072-3.967h.071a2.523,2.523,0,0,1,1.937,4,2.653,2.653,0,0,1-1.7,1.038l.007.709.149.025c.106.017.211.035.317.054a4.412,4.412,0,0,1,3.624,4.275c0,.373,0,.707,0,1.023a.563.563,0,0,1-.588.6C715.455,1854.354,714.194,1854.355,712.935,1854.355Zm-.09-4.806a3.24,3.24,0,0,0-1.755.546,3.111,3.111,0,0,0-1.477,2.7l-.01.37h6.5l-.016-.375a3.15,3.15,0,0,0-1.528-2.718A3.268,3.268,0,0,0,712.846,1849.549Zm.005-5.727a1.318,1.318,0,0,0-.019,2.636h.016a1.322,1.322,0,0,0,1.323-1.315,1.308,1.308,0,0,0-1.3-1.321Z" transform="translate(-708.41 -1842.629)" fill="rgba(14,76,127,0.97)" stroke="#0e4c7f" stroke-width="0.1"/>
          </g>
          <g id="Group_3373" data-name="Group 3373" transform="translate(9.581)">
            <path id="Path_315" data-name="Path 315" d="M716.9,1697.808a.571.571,0,0,1-.57-.418.936.936,0,0,1-.024-.233c0-.391,0-.789,0-1.173v-1.051h-4.164l-2.882,0a.631.631,0,0,1-.522-.252.572.572,0,0,1-.072-.528.589.589,0,0,1,.611-.4h7.544a.587.587,0,0,1,.663.658v.222c0,.854,0,1.737,0,2.6a.568.568,0,0,1-.483.564A.715.715,0,0,1,716.9,1697.808Z" transform="translate(-708.631 -1693.753)" fill="rgba(14,76,127,0.97)" stroke="#0e4c7f" stroke-width="0.1"/>
          </g>
          <g id="Group_3374" data-name="Group 3374" transform="translate(0.004 14.375)">
            <path id="Path_316" data-name="Path 316" d="M499.345,2017.061H496.63c-.5,0-.7-.2-.7-.7q0-.315,0-.63c0-.705,0-1.434,0-2.15a.568.568,0,0,1,.484-.563.729.729,0,0,1,.1-.006.571.571,0,0,1,.57.418.921.921,0,0,1,.024.233c0,.39,0,.788,0,1.172v1.053h3.687l2.391,0a.64.64,0,0,1,.51.221.589.589,0,0,1,.106.5.578.578,0,0,1-.523.451c-.04,0-.083,0-.132,0Z" transform="translate(-495.924 -2013.006)" fill="rgba(14,76,127,0.97)" stroke="#0e4c7f" stroke-width="0.1"/>
          </g>
        </g>
      </g>
    </g>
  </g>
</svg>
