<svg xmlns="http://www.w3.org/2000/svg" xmlns:xlink="http://www.w3.org/1999/xlink" width="30" height="30" viewBox="0 0 30 30">
  <defs>
    <clipPath id="clip-icon2Active">
      <rect width="30" height="30"/>
    </clipPath>
  </defs>
  <g id="icon2Active" clip-path="url(#clip-icon2Active)">
    <g id="o6i8rT.tif" transform="translate(-4.714 20.282) rotate(-60)">
      <g id="Group_3359" data-name="Group 3359" transform="matrix(0.966, 0.259, -0.259, 0.966, 6.1, 0)">
        <path id="Path_300" data-name="Path 300" d="M23.567,9.574a4.062,4.062,0,0,1-.309.393Q16.616,16.616,9.967,23.258a4.063,4.063,0,0,1-.393.309H9.252a1.759,1.759,0,0,1-.217-.159c-.859-.855-1.718-1.708-2.569-2.571a.546.546,0,0,1-.016-.771,4.2,4.2,0,0,0,.319-.449,2.035,2.035,0,0,0-.486-2.667,2.076,2.076,0,0,0-2.715.1.575.575,0,0,1-.906-.016Q1.537,15.919.419,14.793c-.149-.15-.28-.318-.419-.478v-.322a4.415,4.415,0,0,1,.325-.41Q6.951,6.951,13.583.325A4.435,4.435,0,0,1,13.993,0h.322a1.755,1.755,0,0,1,.217.159c.859.855,1.718,1.708,2.569,2.571a.547.547,0,0,1,.016.772,4.206,4.206,0,0,0-.319.449A2.033,2.033,0,0,0,17.267,6.6,2.073,2.073,0,0,0,20,6.513a.574.574,0,0,1,.906.016q1.126,1.119,2.244,2.245c.149.15.28.318.419.478Zm-5.262,3.651c-.343-.339-.689-.677-1.03-1.019a.545.545,0,0,1-.162-.586.586.586,0,0,1,.452-.413.573.573,0,0,1,.557.2c.337.342.676.682.991,1l2.972-2.972L20.353,7.7a3.082,3.082,0,0,1-3.067.277,3.18,3.18,0,0,1-1.511-4.562.292.292,0,0,0-.065-.436c-.432-.413-.85-.841-1.271-1.267-.1-.1-.179-.2-.252-.287L11.168,4.442c.043.046.1.107.156.166.292.294.591.581.876.881a.579.579,0,0,1-.815.823c-.252-.236-.49-.486-.735-.729-.112-.111-.226-.219-.313-.3L1.491,14.128l1.729,1.743a3.147,3.147,0,0,1,2.5-.471,3.214,3.214,0,0,1,2.049,4.8c-.087.146-.085.229.041.345.27.25.526.515.783.778s.538.559.791.823Z" transform="translate(0 0)" fill="rgba(14,76,127,0.97)" stroke="#fff" stroke-width="0.1"/>
        <path id="Path_301" data-name="Path 301" d="M3.534,2.868a.618.618,0,0,1-.342.6.544.544,0,0,1-.586-.054.819.819,0,0,1-.1-.091Q1.348,2.17.2,1.015A.575.575,0,0,1,.064.323.557.557,0,0,1,.673.012.717.717,0,0,1,1.01.188Q2.181,1.341,3.333,2.513A1.33,1.33,0,0,1,3.534,2.868Z" transform="translate(12.964 7.076)" fill="rgba(14,76,127,0.97)" stroke="#fff" stroke-width="0.1"/>
      </g>
    </g>
  </g>
</svg>
