<svg xmlns="http://www.w3.org/2000/svg" xmlns:xlink="http://www.w3.org/1999/xlink" width="30" height="30" viewBox="0 0 30 30">
  <defs>
    <clipPath id="clip-icon1">
      <rect width="30" height="30"/>
    </clipPath>
  </defs>
  <g id="icon1" clip-path="url(#clip-icon1)">
    <g id="cvWRQi.tif" transform="translate(7 5)">
      <g id="Group_3357" data-name="Group 3357">
        <path id="Path_299" data-name="Path 299" d="M469.071,147.392H457.834q0-1.287,0-2.575a5.172,5.172,0,0,1,.215-1.509.225.225,0,0,0-.067-.26c-.456-.454-.906-.915-1.36-1.371a.971.971,0,0,0-.161-.109c.34-.585.642-1.12.961-1.644a.551.551,0,0,0,.04-.477.9.9,0,0,0-.864-.741c-.45-.072-.89-.217-1.329-.329V134.9c.62-.157,1.228-.309,1.835-.468a.26.26,0,0,0,.157-.121,1.689,1.689,0,0,0,.257-.693,1.876,1.876,0,0,0-.338-.67c-.112-.2-.231-.4-.346-.6l-.337-.583a.289.289,0,0,1,.026-.051q1.1-1.166,2.2-2.332c.073-.078.124-.062.2-.013.475.313.956.618,1.428.937a.319.319,0,0,0,.388.03c.145-.085.31-.13.459-.207a.269.269,0,0,0,.134-.149c.153-.661.3-1.324.444-1.986h3.292c.124.564.268,1.125.365,1.694a.576.576,0,0,0,.458.549.979.979,0,0,1,.277.128.212.212,0,0,0,.26-.017c.479-.319.965-.626,1.442-.948.121-.081.19-.086.3.03.681.734,1.371,1.458,2.057,2.186.041.044.08.09.115.13a.29.29,0,0,1-.015.051c-.264.457-.513.925-.8,1.366a.685.685,0,0,0-.065.844c.05.075.055.182.1.26a.358.358,0,0,0,.168.159c.257.078.52.135.781.2l1.064.272v3.473c-.6.152-1.2.307-1.795.45a.29.29,0,0,0-.244.228,3.246,3.246,0,0,1-.192.488.256.256,0,0,0,.013.275c.3.507.592,1.021.895,1.527a.211.211,0,0,1-.025.3c-.429.473-.847.958-1.273,1.435a.3.3,0,0,0-.073.3,7.277,7.277,0,0,1,.184,1.191C469.088,145.511,469.071,146.452,469.071,147.392Zm-3.37-7.581a5.145,5.145,0,0,1,2.647,2.269l.631-.715c-.293-.5-.574-.993-.864-1.477a.324.324,0,0,1-.031-.328c.2-.5.4-1,.59-1.5a.269.269,0,0,1,.213-.191c.533-.128,1.064-.268,1.6-.405V135.82c-.068-.02-.13-.039-.192-.055-.469-.118-.938-.238-1.408-.351a.269.269,0,0,1-.213-.192c-.17-.457-.341-.915-.535-1.361a.552.552,0,0,1,.04-.584c.279-.437.528-.9.782-1.335l-1.112-1.166c-.444.289-.9.583-1.355.886a.291.291,0,0,1-.327.033c-.3-.144-.6-.268-.905-.4-.213-.1-.486-.14-.621-.308a1.844,1.844,0,0,1-.187-.7c-.087-.377-.172-.755-.26-1.139-.477,0-.935.005-1.394,0-.127,0-.175.042-.2.169-.109.516-.231,1.03-.341,1.546a.261.261,0,0,1-.171.212c-.475.2-.948.409-1.418.624a.283.283,0,0,1-.312-.027c-.458-.306-.921-.6-1.359-.888l-1.111,1.182c.273.469.554.96.843,1.444a.31.31,0,0,1,.02.312c-.2.48-.386.963-.566,1.45a.358.358,0,0,1-.287.258c-.516.12-1.029.256-1.548.388v1.645l.175.047c.48.122.962.24,1.44.371a.319.319,0,0,1,.185.165c.207.5.4,1.012.6,1.516a.312.312,0,0,1-.021.312c-.289.484-.57.975-.859,1.471l.706.712a5.148,5.148,0,0,1,2.634-2.247,3.987,3.987,0,0,1-.327-5.673,3.472,3.472,0,0,1,5.035-.114A3.992,3.992,0,0,1,465.7,139.811Zm2.289,6.421c0-.5.007-.969,0-1.442a5.237,5.237,0,0,0-.063-.677,4,4,0,0,0-3.279-3.379,12.977,12.977,0,0,0-1.945-.049,3.948,3.948,0,0,0-3.571,2.811,8.6,8.6,0,0,0-.2,2.7c0,.01.013.02.024.036Zm-7.048-9.431a2.517,2.517,0,1,0,2.514-2.657A2.595,2.595,0,0,0,460.941,136.8Z" transform="translate(-455.267 -128)" fill="#fff"/>
      </g>
    </g>
  </g>
</svg>
