<svg xmlns="http://www.w3.org/2000/svg" width="17.356" height="18.94" viewBox="0 0 17.356 18.94">
  <g id="Hdpzov.tif" transform="translate(-2314.815 -28.412)">
    <g id="Group_3380" data-name="Group 3380" transform="translate(2314.815 28.412)">
      <path id="Path_9228" data-name="Path 9228" d="M2528.467,28.412a.924.924,0,0,1,.613,1c-.014,1.985-.005,3.969-.007,5.954a1.633,1.633,0,0,1-.026.349.781.781,0,0,1-.812.59.754.754,0,0,1-.729-.681c-.025-.374-.016-.751-.017-1.127,0-1.7.009-3.39-.006-5.085a.922.922,0,0,1,.614-1Z" transform="translate(-2519.6 -28.412)" fill="#ba131a"/>
      <path id="Path_9229" data-name="Path 9229" d="M2314.815,96.345a8.514,8.514,0,0,1,5.172-7.475.789.789,0,1,1,.67,1.429,7.2,7.2,0,0,0-2.424,1.749,7.1,7.1,0,0,0,4.53,11.82,7.094,7.094,0,0,0,3.729-13.49.884.884,0,0,1-.623-.689.787.787,0,0,1,1.129-.824,8.38,8.38,0,0,1,2.176,1.378,8.507,8.507,0,0,1,2.852,4.985,8.675,8.675,0,0,1-16.825,4.116A9.848,9.848,0,0,1,2314.815,96.345Z" transform="translate(-2314.815 -86.546)" fill="#ba131a"/>
    </g>
  </g>
</svg>
