<svg xmlns="http://www.w3.org/2000/svg" width="15.988" height="21.402" viewBox="0 0 15.988 21.402">
  <g id="Group_3458" data-name="Group 3458" transform="translate(-1332.156 1527.149)">
    <path id="Path_9239" data-name="Path 9239" d="M1334.38-1506a2.075,2.075,0,0,1-1.022-.225,1.776,1.776,0,0,1-.95-1.731v-1.241c0-2.656,0-5.4.005-8.1a1.766,1.766,0,0,1,1.446-1.89,2.233,2.233,0,0,1,.382-.035l.134-.006c.041,0,.086,0,.143,0h.7v-.407c0-.21,0-.416,0-.62,0-.455.007-.885-.007-1.325a5.035,5.035,0,0,1,.788-3.065,4.71,4.71,0,0,1,4.084-2.254c.1,0,.2,0,.3.008a4.875,4.875,0,0,1,3.047,1.221,5.016,5.016,0,0,1,1.576,2.9,5.039,5.039,0,0,1,.059.767.513.513,0,0,1-.141.37.527.527,0,0,1-.375.158h-.006a.525.525,0,0,1-.468-.526,3.918,3.918,0,0,0-.606-2.067,3.9,3.9,0,0,0-3.306-1.845,4.109,4.109,0,0,0-.547.037,3.911,3.911,0,0,0-3.293,2.99,4.808,4.808,0,0,0-.1.975c-.009.533-.008,1.055-.006,1.608q0,.33,0,.668v.407h9.752a1.822,1.822,0,0,1,1.656.862,1.852,1.852,0,0,1,.267,1.028c0,2.905.006,6.2,0,9.411a1.78,1.78,0,0,1-1.475,1.882,3.314,3.314,0,0,1-.618.046q-3.46,0-6.92,0h-4.5Zm-.016-12.227a.976.976,0,0,0-.723.225.978.978,0,0,0-.225.724v9.321c0,.662.285.945.953.945h11.576c.656,0,.935-.281.936-.938q0-4.66,0-9.321c0-.679-.279-.955-.963-.955h-11.554Z" transform="translate(0 0)" fill="#15375f" stroke="#19406f" stroke-width="0.5"/>
    <path id="Path_9240" data-name="Path 9240" d="M1479.578-1242.307a.508.508,0,0,1-.464-.495v-.058c0-.079,0-.154,0-.22a1.5,1.5,0,0,0-.4-1.21.942.942,0,0,1-.1-1.129,1.007,1.007,0,0,1,.855-.632,1.175,1.175,0,0,1,1.168.683,1.087,1.087,0,0,1-.248,1.227.872.872,0,0,0-.283.7c.009.165.006.333,0,.511l0,.116a.511.511,0,0,1-.522.5Z" transform="translate(-139.462 -268.149)" fill="#15375f" stroke="#19406f" stroke-width="0.5"/>
  </g>
</svg>
