<svg xmlns="http://www.w3.org/2000/svg" xmlns:xlink="http://www.w3.org/1999/xlink" width="24" height="24" viewBox="0 0 24 24">
  <defs>
    <clipPath id="clip-portfolioIcon">
      <rect width="24" height="24"/>
    </clipPath>
  </defs>
  <g id="portfolioIcon" clip-path="url(#clip-portfolioIcon)">
    <g id="Jowt8x.tif" transform="translate(6 7)">
      <g id="Group_261" data-name="Group 261">
        <path id="Path_9220" data-name="Path 9220" d="M643.5,272.8h.841c.411,0,.823,0,1.234,0,.307,0,.443.224.324.535q-1.156,3.03-2.314,6.06a.375.375,0,0,1-.388.278q-2.833-.027-5.665-.048c-1.254-.01-2.508-.015-3.762-.024-.335,0-.41-.086-.41-.459q0-4.573,0-9.145c0-.377.093-.48.43-.48,1.066,0,2.132,0,3.2,0a.387.387,0,0,1,.4.264c.2.45.416.891.616,1.341a.218.218,0,0,0,.231.157q2.429-.007,4.859,0a.407.407,0,0,1,.272.066.515.515,0,0,1,.131.312C643.513,272.027,643.5,272.4,643.5,272.8Zm-9.365,6.144h.444q4.187.029,8.374.061c.106,0,.148-.036.187-.139q.979-2.6,1.965-5.187c.022-.058.037-.118.061-.194h-.156q-4.332,0-8.664,0c-.114,0-.164.041-.208.157q-.917,2.443-1.845,4.882C634.246,278.653,634.2,278.785,634.138,278.943ZM634,270.191v7.325c.036-.085.057-.129.074-.174l1.593-4.2c.113-.3.17-.339.469-.339h6.746v-.846h-.188c-1.564,0-3.128,0-4.692,0a.432.432,0,0,1-.441-.3c-.2-.446-.408-.883-.607-1.327a.2.2,0,0,0-.207-.142c-.863.005-1.726,0-2.59,0Z" transform="translate(-633.365 -269.514)"/>
      </g>
    </g>
  </g>
</svg>
