<svg xmlns="http://www.w3.org/2000/svg" xmlns:xlink="http://www.w3.org/1999/xlink" width="24" height="24" viewBox="0 0 24 24">
  <defs>
    <clipPath id="clip-printerIcon">
      <rect width="24" height="24"/>
    </clipPath>
  </defs>
  <g id="printerIcon" clip-path="url(#clip-printerIcon)">
    <g id="yzjuXo.tif" transform="translate(4.999 6)">
      <path id="Path_9218" data-name="Path 9218" d="M87.9,250.566h7.624v3.746H96.2a2.154,2.154,0,0,1,2.09,2.257q0,1.766,0,3.531v.211H95.528v2.98H87.9v-2.976H85.134c0-.08-.009-.142-.009-.2q0-1.739,0-3.479a2.22,2.22,0,0,1,1.6-2.26,1.942,1.942,0,0,1,.417-.056c.243-.009.486,0,.749,0Zm9.684,8.976c0-.05.011-.09.011-.13,0-.931,0-1.862,0-2.793a1.844,1.844,0,0,0-.036-.383,1.4,1.4,0,0,0-1.44-1.171q-4.4,0-8.8,0a1.708,1.708,0,0,0-.4.036,1.473,1.473,0,0,0-1.093,1.5c0,.937,0,1.874,0,2.811,0,.045.007.089.011.131H87.9V258.07h7.621v1.473Zm-2.775,3v-3.728H88.6v3.728Zm.006-11.21h-6.2V254.3h6.2Z" transform="translate(-85.124 -250.566)"/>
      <path id="Path_9219" data-name="Path 9219" d="M405.351,401.06a.756.756,0,1,1,.7-.745A.723.723,0,0,1,405.351,401.06Z" transform="translate(-394.27 -394.312)"/>
    </g>
  </g>
</svg>
