<svg xmlns="http://www.w3.org/2000/svg" xmlns:xlink="http://www.w3.org/1999/xlink" width="24" height="24" viewBox="0 0 24 24">
  <defs>
    <clipPath id="clip-summaryIcon">
      <rect width="24" height="24"/>
    </clipPath>
  </defs>
  <g id="summaryIcon" clip-path="url(#clip-summaryIcon)">
    <g id="BV6SFk.tif" transform="translate(6 4)">
      <g id="Group_262" data-name="Group 262">
        <path id="Path_9221" data-name="Path 9221" d="M1751.789,263.037c.246.248.5.491.738.744.7.736,1.4,1.478,2.1,2.214a.728.728,0,0,1,.213.538q-.008,5.349,0,10.7a1.356,1.356,0,0,1-.543,1.162,1.11,1.11,0,0,1-.675.226q-4.555,0-9.11,0a1.274,1.274,0,0,1-1.217-1.371c0-1.466,0-2.932,0-4.4q0-4.184,0-8.369a1.312,1.312,0,0,1,1.008-1.425c.008,0,.014-.013.021-.019Zm-.462.652h-6.7c-.482,0-.714.248-.714.757v12.8a.641.641,0,0,0,.686.725c.293,0,.586,0,.879,0h8a.68.68,0,0,0,.732-.756q0-5.082,0-10.164v-.177h-.17c-.5,0-1.009,0-1.513,0a1.26,1.26,0,0,1-1.2-1.262c-.006-.568,0-1.136,0-1.7Zm2.589,2.523-1.966-2.069s-.007.009-.007.022c0,.466-.009.933,0,1.4a.612.612,0,0,0,.638.647c.365,0,.73,0,1.095,0Z" transform="translate(-1743.292 -263.037)" stroke="#000" stroke-width="0.3"/>
        <path id="Path_9223" data-name="Path 9223" d="M1801.078,479.62h-3.9a.314.314,0,0,1-.343-.387.277.277,0,0,1,.205-.269.814.814,0,0,1,.214-.023h7.68a.98.98,0,0,1,.158.007.3.3,0,0,1,.261.318c-.006.215-.109.34-.294.354-.038,0-.077,0-.115,0Z" transform="translate(-1795.281 -471.367)" stroke="#000" stroke-width="0.3"/>
        <path id="Path_9225" data-name="Path 9225" d="M1801.09,547.271h3.863c.048,0,.1,0,.144,0a.278.278,0,0,1,.262.278.332.332,0,0,1-.249.382,1.037,1.037,0,0,1-.158.006H1797.3c-.057,0-.115,0-.173,0a.294.294,0,0,1-.289-.333c0-.2.1-.328.29-.33.524-.006,1.047,0,1.571,0h2.393Z" transform="translate(-1795.289 -536.63)" stroke="#000" stroke-width="0.3"/>
        <path id="Path_9226" data-name="Path 9226" d="M1799.31,410.838c.706,0,1.412,0,2.118,0a.328.328,0,0,1,.321.458.3.3,0,0,1-.314.222c-.177,0-.355,0-.533,0h-3.673c-.245,0-.38-.123-.382-.341a.308.308,0,0,1,.346-.34c.557,0,1.114,0,1.671,0Z" transform="translate(-1795.3 -406.337)" stroke="#000" stroke-width="0.3"/>
      </g>
    </g>
  </g>
</svg>
